<?xml version="1.0" encoding="utf-8"?>
<!-- Generator: Adobe Illustrator 25.1.0, SVG Export Plug-In . SVG Version: 6.00 Build 0)  -->
<svg version="1.1" id="Layer_1" xmlns="http://www.w3.org/2000/svg" xmlns:xlink="http://www.w3.org/1999/xlink" x="0px" y="0px"
	 viewBox="0 0 496 496" style="enable-background:new 0 0 496 496;" xml:space="preserve">
<style type="text/css">
	.st0{fill:#E2F5F8;}
	.st1{fill:#05373C;}
</style>
<g>
	<path class="st0" d="M280,384l-2.2,8.7c-3.4,13.7-15.7,23.3-29.8,23.3v72h40V384H280z"/>
	<path class="st0" d="M104,144l-42.7-32H24c-13.2,0-24-10.8-24-24V24C0,10.8,10.8,0,24,0h112c13.2,0,24,10.8,24,24v64
		c0,13.2-10.8,24-24,24h-32V144z"/>
	<path class="st0" d="M392,144v-32h-32c-13.2,0-24-10.8-24-24V24c0-13.2,10.8-24,24-24h112c13.2,0,24,10.8,24,24v64
		c0,13.2-10.8,24-24,24h-37.3L392,144z"/>
	<path class="st0" d="M248,152c-52.9,0-96,43.1-96,96v56h8c0-13.3,10.7-24,24-24h8c0-8.8,7.2-16,16-16h80c8.8,0,16,7.2,16,16h8
		c13.3,0,24,10.7,24,24h8v-56C344,195.1,300.9,152,248,152z"/>
</g>
<path class="st1" d="M32,64h96v16H32V64z"/>
<path class="st1" d="M368,64h96v16h-96V64z"/>
<path class="st1" d="M32,32h96v16H32V32z"/>
<path class="st1" d="M368,32h96v16h-96V32z"/>
<path class="st1" d="M272,448h16v16h-16V448z"/>
<path class="st1" d="M496,368v-39c0-18.4-12.5-34.3-30.3-38.8l-33.7-8.4v-3.8c14.9-10.4,24-27.6,24-45.9v-14
	c0-31.1-24.4-57.1-54.3-58c-0.5,0-0.9,0-2,0c-0.5,0-0.9,0-1.4,0c-29.9,0.9-54.3,26.9-54.3,58v14c0,18.3,9.1,35.5,24,45.9v3.8l-28,7
	c-5.4-9.9-15.9-16.8-28-16.8h-1.5c-3.3-9.3-12.1-16-22.5-16h-80c-10.4,0-19.2,6.7-22.5,16H184c-12.1,0-22.6,6.9-28,16.8l-28-7.1
	v-3.8c14.9-10.4,24-27.6,24-45.9v-14c0-31.1-24.4-57.1-54.3-58c-0.5,0-0.9,0-2,0c-0.5,0-0.9,0-1.4,0C64.4,160.9,40,186.9,40,218v14
	c0,18.3,9.1,35.5,24,45.9v3.8l-33.7,8.4C12.5,294.6,0,310.6,0,329v39h192v-25.1c4.1,7.3,9.5,13.8,16,19V378l-63.5,18.3
	c-23.8,6.9-40.5,29-40.5,53.8V496h288v-45.9c0-24.8-16.6-46.9-40.5-53.8L288,378v-16.1c6.5-5.2,12-11.7,16.1-19.1L304,368H496z
	 M384,294.2l0-25.3l-4-2.3c-12.4-7.2-20-20.4-20-34.6v-14c0-22.5,17.4-41.4,39-42l2.2,0c21.4,0.6,38.8,19.5,38.8,42v14
	c0,14.2-7.7,27.5-20,34.6l-4,2.3l0,25.3l45.8,11.4C472.5,308.4,480,318,480,329v23H320l0-17.1c13.7-3.6,23.9-15.9,24-30.6L384,294.2
	z M328,304c0,8.8-7.2,16-16,16h-0.6c0.3-2.6,0.6-5.3,0.6-8v-24C320.8,288,328,295.2,328,304z M184,288v24c0,2.7,0.2,5.4,0.6,8H184
	c-8.8,0-16-7.2-16-16S175.2,288,184,288z M16,352v-23c0-11,7.5-20.6,18.2-23.3L80,294.2l0-25.3l-4-2.3c-12.4-7.2-20-20.4-20-34.6
	v-14c0-22.5,17.4-41.4,39-42l2.2,0c21.4,0.6,38.8,19.5,38.8,42v14c0,14.2-7.7,27.5-20,34.6l-4,2.3l0,25.3l40,10
	c0.1,14.7,10.3,27,23.9,30.6L176,352H16z M120,450.1c0-17.7,11.9-33.5,28.9-38.4l61.3-17.7l0.2,0.7c3.7,14.6,15.3,25.4,29.6,28.4
	V480h-72v-48h-16v48h-32L120,450.1L120,450.1z M347.1,411.7c17,4.9,28.9,20.7,28.9,38.4V480h-32v-48h-16v48h-72v-56.9
	c14.3-3,25.9-13.8,29.6-28.4l0.2-0.7L347.1,411.7z M272,383l-1.9,7.8c-2.5,10.1-11.6,17.2-22.1,17.2s-19.5-7.1-22.1-17.2L224,383
	v-11.7c7.4,3,15.5,4.7,24,4.7s16.6-1.7,24-4.7V383z M296,312c0,26.5-21.5,48-48,48s-48-21.5-48-48v-32c0-4.4,3.6-8,8-8h80
	c4.4,0,8,3.6,8,8V312z"/>
</svg>
