<svg id="Layer_1" data-name="Layer 1" xmlns="http://www.w3.org/2000/svg" viewBox="0 0 417.03 366.99"><defs><style>.cls-1{fill:#00838f;}</style></defs><path class="cls-1" d="M361.6,351v8.49a34.06,34.06,0,0,1-34,34H56a34.06,34.06,0,0,1-34-34V351a8.51,8.51,0,0,1,8.49-8.49H157.43c-.13,7.71,7.47,17,17.39,17h32.26c9.57,0,17-6.47,17.37-17H353.11A8.51,8.51,0,0,1,361.6,351Zm-34-25.47H56V147.28a25.54,25.54,0,0,1,25.47-25.47H302.17a25.54,25.54,0,0,1,25.47,25.47Zm-34-169.8H89.92V291.61H293.68ZM126.36,229.69a8.49,8.49,0,0,1,0-12l31-31a8.49,8.49,0,0,1,12,0l6,6a8.49,8.49,0,0,1,0,12l-19,18.95,19,18.95a8.49,8.49,0,0,1,0,12l-6,6a8.47,8.47,0,0,1-12,0Zm81.91,13,18.95-19-18.95-18.95a8.47,8.47,0,0,1,0-12l6-6a8.5,8.5,0,0,1,12,0l31,31a8.5,8.5,0,0,1,0,12l-31,31a8.5,8.5,0,0,1-12,0l-6-6A8.47,8.47,0,0,1,208.27,242.65Z" transform="translate(-22 -26.5)"/><path class="cls-1" d="M403.28,55c-3.9-3.93-9.31-5.93-16.08-5.93a25.35,25.35,0,0,0-8.2,1.3,24.37,24.37,0,0,0-6.75,3.55,22,22,0,0,0-5.19,5.39A38.19,38.19,0,0,0,362,70.47c-.08.28-.17.56-.25.84L345.93,68.4A45.37,45.37,0,0,1,350.44,56,40,40,0,0,1,355.35,49a4.58,4.58,0,0,0-6.9-6,48.8,48.8,0,0,0-6,8.68,56.71,56.71,0,0,0-6,17.75A6.59,6.59,0,0,0,341.76,77l20.55,3.78a6.09,6.09,0,0,0,1.2.11,6.63,6.63,0,0,0,6.19-4.32c.43-1.18.77-2.29,1.1-3.38a29.64,29.64,0,0,1,3.94-8.73,13.31,13.31,0,0,1,3.07-3.15,15.57,15.57,0,0,1,4.2-2.19,16.28,16.28,0,0,1,5.23-.8c4.24,0,7.46,1.08,9.57,3.21S400,67.08,400,71.71a31.09,31.09,0,0,1-1.12,8.47,35.12,35.12,0,0,1-3.45,8.07,62.1,62.1,0,0,1-6.07,8.58c-2.52,3-5.48,6.25-8.81,9.58l-40.39,40.48a18.81,18.81,0,0,0-4.72,7.17,20.63,20.63,0,0,0-1.35,7.07v4.27a9.4,9.4,0,0,0,9.39,9.39h42.44a4.59,4.59,0,0,0,0-9.17H343.44a.22.22,0,0,1-.22-.22h0v-4.27a11.91,11.91,0,0,1,.79-4,9.87,9.87,0,0,1,2.5-3.71l.07-.06L387,112.84c3.52-3.51,6.67-6.94,9.36-10.18a70.46,70.46,0,0,0,7-9.87,44.11,44.11,0,0,0,4.33-10.17,40.07,40.07,0,0,0,1.47-11C409.13,64.55,407.16,58.94,403.28,55Z" transform="translate(-22 -26.5)"/><path class="cls-1" d="M431.64,140.58H391.1l17.38-17.77c3.67-3.74,7.21-7.49,10.51-11.18a94,94,0,0,0,9.11-11.9,60.59,60.59,0,0,0,6.44-13.31A48.44,48.44,0,0,0,437,70.84a45.59,45.59,0,0,0-3.52-18,40.84,40.84,0,0,0-10-14.17,46,46,0,0,0-15.32-9,57.1,57.1,0,0,0-19.39-3.17A63.36,63.36,0,0,0,370,29.22c-.54.17-1.07.34-1.59.53a4.58,4.58,0,0,0,3,8.65l1.31-.43a54.19,54.19,0,0,1,16-2.31A48.09,48.09,0,0,1,405,38.27a36.7,36.7,0,0,1,12.27,7.2,31.42,31.42,0,0,1,7.76,11,36.42,36.42,0,0,1,2.78,14.42,39.24,39.24,0,0,1-2,12.64,51.42,51.42,0,0,1-5.45,11.3,84.71,84.71,0,0,1-8.22,10.73c-3.21,3.58-6.65,7.24-10.23,10.88l-24.4,24.9a4.95,4.95,0,0,0,3.54,8.41h48.77v15.84H407.2a4.59,4.59,0,0,0,0,9.17h24.44a7.4,7.4,0,0,0,7.39-7.39V148A7.4,7.4,0,0,0,431.64,140.58Z" transform="translate(-22 -26.5)"/></svg>