<svg width="19" height="19" viewBox="0 0 19 19" fill="none" xmlns="http://www.w3.org/2000/svg">
<g clip-path="url(#clip0_38_2235)">
<path d="M9.49997 0C7.62105 0 5.78432 0.557165 4.22206 1.60104C2.65979 2.64491 1.44215 4.12861 0.723118 5.86451C0.0040857 7.6004 -0.184046 9.51054 0.182514 11.3534C0.549073 13.1962 1.45386 14.8889 2.78246 16.2175C4.11106 17.5461 5.8038 18.4509 7.64662 18.8175C9.48943 19.184 11.3996 18.9959 13.1355 18.2768C14.8714 17.5578 16.3551 16.3402 17.3989 14.7779C18.4428 13.2156 19 11.3789 19 9.5C18.9972 6.98128 17.9955 4.5665 16.2145 2.78549C14.4335 1.00449 12.0187 0.00272419 9.49997 0V0ZM9.49997 16.625C8.09078 16.625 6.71324 16.2071 5.54154 15.4242C4.36984 14.6413 3.45661 13.5285 2.91733 12.2266C2.37806 10.9247 2.23696 9.49209 2.51188 8.10998C2.7868 6.72787 3.46539 5.45831 4.46184 4.46186C5.45829 3.46541 6.72784 2.78682 8.10995 2.5119C9.49207 2.23698 10.9247 2.37808 12.2266 2.91736C13.5285 3.45663 14.6413 4.36986 15.4242 5.54156C16.2071 6.71326 16.625 8.09081 16.625 9.5C16.6227 11.389 15.8713 13.1999 14.5356 14.5356C13.1999 15.8713 11.3889 16.6227 9.49997 16.625V16.625Z" fill="#12B3C8"/>
<path d="M9.13978 7.55604H8.90228C8.59114 7.5484 8.28836 7.65725 8.05331 7.86126C7.81825 8.06526 7.66787 8.34971 7.63165 8.65883C7.61094 8.96808 7.71196 9.27316 7.91312 9.50895C8.11429 9.74473 8.39967 9.89251 8.70832 9.92075V13.602C8.70832 13.9169 8.83343 14.219 9.05613 14.4417C9.27883 14.6644 9.58088 14.7895 9.89582 14.7895C10.2108 14.7895 10.5128 14.6644 10.7355 14.4417C10.9582 14.219 11.0833 13.9169 11.0833 13.602V9.49958C11.0833 8.98412 10.8786 8.48978 10.5141 8.12529C10.1496 7.76081 9.65524 7.55604 9.13978 7.55604Z" fill="#12B3C8"/>
<path d="M9.36543 6.70235C9.63411 6.70235 9.89677 6.62267 10.1202 6.4734C10.3436 6.32412 10.5177 6.11196 10.6205 5.86372C10.7233 5.61549 10.7502 5.34234 10.6978 5.07882C10.6454 4.8153 10.516 4.57324 10.326 4.38325C10.136 4.19326 9.89398 4.06387 9.63046 4.01146C9.36693 3.95904 9.09379 3.98594 8.84555 4.08876C8.59732 4.19158 8.38515 4.3657 8.23588 4.58911C8.0866 4.81251 8.00693 5.07516 8.00693 5.34385C8.00682 5.52228 8.04189 5.69898 8.11013 5.86385C8.17836 6.02871 8.27842 6.17851 8.40459 6.30468C8.53076 6.43085 8.68056 6.53091 8.84543 6.59915C9.0103 6.66738 9.187 6.70245 9.36543 6.70235Z" fill="#12B3C8"/>
</g>
<defs>
<clipPath id="clip0_38_2235">
<rect width="19" height="19" fill="white"/>
</clipPath>
</defs>
</svg>
