<svg id="Layer_1" data-name="Layer 1" xmlns="http://www.w3.org/2000/svg" viewBox="0 0 406.38 366.99"><defs><style>.cls-1{fill:#00838f;}</style></defs><path class="cls-1" d="M422,145.89H404.39V135.43a4.7,4.7,0,0,0-9.39,0v15.15a4.69,4.69,0,0,0,4.69,4.69H419v12.94H349.32V155.27h22.83a4.69,4.69,0,0,0,4.7-4.68h0V66.65a4.69,4.69,0,0,0-4.67-4.71,4.64,4.64,0,0,0-3,1.1L348.91,80l-8.59-11.47L349,61.25a4.69,4.69,0,1,0-6.06-7.16L333,62.49a7.62,7.62,0,0,0-1.16,10.4l10.76,14.26a7.61,7.61,0,0,0,10.65,1.52c.12-.09.24-.18.35-.28l13.88-11.67V145.9H346.32a6.37,6.37,0,0,0-6.36,6.35v19a6.38,6.38,0,0,0,6.36,6.36H422a6.38,6.38,0,0,0,6.36-6.36v-19A6.38,6.38,0,0,0,422,145.89Z" transform="translate(-22 -26.5)"/><path class="cls-1" d="M396.77,26.5H378.21a7.61,7.61,0,0,0-4.89,1.81L359.52,40a4.69,4.69,0,0,0,6.07,7.16h0l13.27-11.24H395V113.6a4.69,4.69,0,1,0,9.38,0V34.12A7.63,7.63,0,0,0,396.77,26.5Z" transform="translate(-22 -26.5)"/><path class="cls-1" d="M361.6,351v8.49a34.06,34.06,0,0,1-34,34H56a34.06,34.06,0,0,1-34-34V351a8.51,8.51,0,0,1,8.49-8.49H157.43c-.13,7.71,7.47,17,17.39,17h32.26c9.57,0,17-6.47,17.37-17H353.11A8.51,8.51,0,0,1,361.6,351Zm-34-25.47H56V147.28a25.54,25.54,0,0,1,25.47-25.47H302.17a25.54,25.54,0,0,1,25.47,25.47Zm-34-169.8H89.92V291.61H293.68ZM126.36,229.69a8.49,8.49,0,0,1,0-12l31-31a8.49,8.49,0,0,1,12,0l6,6a8.49,8.49,0,0,1,0,12l-19,18.95,19,18.95a8.49,8.49,0,0,1,0,12l-6,6a8.47,8.47,0,0,1-12,0Zm81.91,13,18.95-19-18.95-18.95a8.47,8.47,0,0,1,0-12l6-6a8.5,8.5,0,0,1,12,0l31,31a8.5,8.5,0,0,1,0,12l-31,31a8.5,8.5,0,0,1-12,0l-6-6A8.47,8.47,0,0,1,208.27,242.65Z" transform="translate(-22 -26.5)"/></svg>