<svg id="Layer_1" data-name="Layer 1" xmlns="http://www.w3.org/2000/svg" viewBox="0 0 150 38.21"><defs><style>.cls-1{fill:#00acc1;}.cls-2{fill:#0097a7;}.cls-3{fill:#00838f;}.cls-4{fill:#00bcd4;}.cls-5{fill:#fff;}</style></defs><polygon class="cls-1" points="15.98 12.59 20.04 9.93 34.63 18.28 30.25 20.84 15.98 12.59"/><polygon class="cls-2" points="11.58 17.62 16.06 15.03 28.85 22.73 24.37 25.24 11.58 17.62"/><polygon class="cls-3" points="10.74 24.82 15.28 22.45 22.97 26.92 18.29 29.44 10.74 24.82"/><path class="cls-4" d="M35,29.27,30.6,31.82,30.73,43s4.18-1.34,4.18-7.54S35,29.27,35,29.27Z" transform="translate(-0.35 -10.99)"/><polygon class="cls-4" points="28.84 22.69 24.34 25.25 24.39 35.52 28.85 32.72 28.84 22.69"/><path class="cls-4" d="M18.6,15.24,31,22.18l4.34-2.38L21,11.78s-3.11-2.2-7.85.73C9.5,14.44,6.68,15.89,2.9,18.35,2,19,.35,19.44.35,22.73V38.79a2.44,2.44,0,0,0,.73,1.1A113.47,113.47,0,0,0,15,48.65a7.71,7.71,0,0,0,6.57-.37l1.86-1,0-9.39L18.6,40.43v3.65L6.19,36.78V22.54Z" transform="translate(-0.35 -10.99)"/><path class="cls-5" d="M59,27a9.34,9.34,0,0,0-2.26-2.15,5.25,5.25,0,0,0-3-.83,5.7,5.7,0,0,0-2.26.45,5.78,5.78,0,0,0-3,7.54,5.82,5.82,0,0,0,1.22,1.82,5.74,5.74,0,0,0,1.82,1.21,5.87,5.87,0,0,0,2.26.43,6.5,6.5,0,0,0,2.92-.59,4.81,4.81,0,0,0,1.8-1.4V32.38H51.28V29.15H61.86v5.64A11.05,11.05,0,0,1,58.31,38a9.17,9.17,0,0,1-4.56,1.18,9.44,9.44,0,0,1-3.68-.73,9.23,9.23,0,0,1-5-5,9.23,9.23,0,0,1-.74-3.68,9.35,9.35,0,0,1,.74-3.69,9.55,9.55,0,0,1,2-3,9.3,9.3,0,0,1,6.66-2.74,9.73,9.73,0,0,1,4.27,1,9.46,9.46,0,0,1,3.62,3.17Z" transform="translate(-0.35 -10.99)"/><path class="cls-5" d="M63,32.32a7.59,7.59,0,0,1,.47-2.72,7.27,7.27,0,0,1,1.31-2.21,6.15,6.15,0,0,1,2-1.48,5.36,5.36,0,0,1,2.41-.55,5.21,5.21,0,0,1,2.33.53,6.17,6.17,0,0,1,1.85,1.43v-1.9h3.51V39.17H73.28V37.26a5.49,5.49,0,0,1-1.85,1.44,5.2,5.2,0,0,1-2.33.52,5.49,5.49,0,0,1-2.41-.54,6.3,6.3,0,0,1-2-1.48A6.83,6.83,0,0,1,63.43,35,7.5,7.5,0,0,1,63,32.32Zm3.5,0a3.41,3.41,0,0,0,.26,1.32,3.27,3.27,0,0,0,.71,1.08,3.57,3.57,0,0,0,1.07.73,3.19,3.19,0,0,0,1.33.27,3.25,3.25,0,0,0,1.32-.27A3.43,3.43,0,0,0,73,33.64a3.25,3.25,0,0,0,.27-1.32A3.33,3.33,0,0,0,73,31a3.38,3.38,0,0,0-1.81-1.83,3.41,3.41,0,0,0-1.32-.26,3.36,3.36,0,0,0-1.33.26,3.57,3.57,0,0,0-1.07.73,3.26,3.26,0,0,0-.71,1.1A3.5,3.5,0,0,0,66.46,32.32Z" transform="translate(-0.35 -10.99)"/><path class="cls-5" d="M82.21,25.42v1.23A3.59,3.59,0,0,1,85,25.36a3.66,3.66,0,0,1,2,.51,3.7,3.7,0,0,1,1.32,1.37,4.16,4.16,0,0,1,1.41-1.39,3.9,3.9,0,0,1,2-.49,4,4,0,0,1,1.77.39,4.12,4.12,0,0,1,1.34,1.08,4.93,4.93,0,0,1,.86,1.6A6.22,6.22,0,0,1,96,30.38v8.79h-3.5V30.38a1.66,1.66,0,0,0-.22-.87,1.62,1.62,0,0,0-.53-.57,1.48,1.48,0,0,0-.7-.25,1.56,1.56,0,0,0-.74.09,1.6,1.6,0,0,0-.83.62A3.07,3.07,0,0,0,89.11,31v8.14H85.6V30.38a1.83,1.83,0,0,0-.19-.85,1.5,1.5,0,0,0-.52-.59,1.82,1.82,0,0,0-.7-.27,1.19,1.19,0,0,0-.72.11,1.83,1.83,0,0,0-.86.61,2.73,2.73,0,0,0-.4,1.61v8.17H78.7V25.42Z" transform="translate(-0.35 -10.99)"/><path class="cls-5" d="M101,21.52V27.3a5.91,5.91,0,0,1,1.84-1.42,5.09,5.09,0,0,1,2.31-.52,5.4,5.4,0,0,1,2.42.55,6.38,6.38,0,0,1,2,1.48,7.25,7.25,0,0,1,1.3,2.21,7.59,7.59,0,0,1,.48,2.72,7.51,7.51,0,0,1-.48,2.69,6.81,6.81,0,0,1-1.3,2.19,6.54,6.54,0,0,1-2,1.48,5.53,5.53,0,0,1-2.42.54,5.21,5.21,0,0,1-2.31-.5,5.84,5.84,0,0,1-1.84-1.4v1.85H97.56V21.52Zm6.82,10.8a3.33,3.33,0,0,0-.27-1.33,3.38,3.38,0,0,0-1.81-1.83,3.41,3.41,0,0,0-1.32-.26,3.45,3.45,0,0,0-1.32.26,3.79,3.79,0,0,0-1.08.7,3.2,3.2,0,0,0-.73,1,3.73,3.73,0,0,0-.29,1.28v.14a3.25,3.25,0,0,0,.27,1.32,3.33,3.33,0,0,0,.73,1.08,3.27,3.27,0,0,0,1.08.73,3.31,3.31,0,0,0,1.34.27,3.25,3.25,0,0,0,1.32-.27,3.43,3.43,0,0,0,1.81-1.81A3.25,3.25,0,0,0,107.86,32.32Z" transform="translate(-0.35 -10.99)"/><path class="cls-5" d="M112.8,32.32a7.81,7.81,0,0,1,.47-2.72,7.27,7.27,0,0,1,1.31-2.21,6.15,6.15,0,0,1,2-1.48,5.36,5.36,0,0,1,2.41-.55,5.18,5.18,0,0,1,2.33.53,6.34,6.34,0,0,1,1.86,1.43v-1.9h3.5V39.17h-3.5V37.26a5.62,5.62,0,0,1-1.86,1.44,5.17,5.17,0,0,1-2.33.52,5.49,5.49,0,0,1-2.41-.54,6.3,6.3,0,0,1-2-1.48A6.83,6.83,0,0,1,113.27,35,7.72,7.72,0,0,1,112.8,32.32Zm3.51,0a3.36,3.36,0,0,0,1,2.4,3.57,3.57,0,0,0,1.07.73,3.39,3.39,0,0,0,2.65,0,3.38,3.38,0,0,0,1.08-.73,3.33,3.33,0,0,0,.73-1.08,3.25,3.25,0,0,0,.27-1.32,3.49,3.49,0,0,0-1-2.43,3.38,3.38,0,0,0-1.08-.73,3.51,3.51,0,0,0-2.65,0,3.57,3.57,0,0,0-1.07.73,3.41,3.41,0,0,0-.71,1.1A3.5,3.5,0,0,0,116.31,32.32Z" transform="translate(-0.35 -10.99)"/><path class="cls-5" d="M132.16,25.42v1.93a5.32,5.32,0,0,1,1.5-1.41,3.85,3.85,0,0,1,2.12-.58V28.9a3.74,3.74,0,0,0-1.27.23,4,4,0,0,0-1.14.66,3.63,3.63,0,0,0-.84,1,2.41,2.41,0,0,0-.37,1.18v7.21h-3.48V25.42Z" transform="translate(-0.35 -10.99)"/><path class="cls-5" d="M140.05,25.42v6.7a4.43,4.43,0,0,0,.9,3,3.12,3.12,0,0,0,2.52,1.07,3,3,0,0,0,1.32-.31,3.29,3.29,0,0,0,1.08-.9,4.48,4.48,0,0,0,.73-1.43,6.25,6.25,0,0,0,.27-1.91V25.42h3.48V39.17h-3.48V36.73A5.4,5.4,0,0,1,145,38.55a4.91,4.91,0,0,1-2.55.65,6.16,6.16,0,0,1-2.36-.45,5.44,5.44,0,0,1-1.88-1.27,5.88,5.88,0,0,1-1.23-2,7.2,7.2,0,0,1-.45-2.6V25.42Z" transform="translate(-0.35 -10.99)"/></svg>